{"title":"The Internship 2013 CAM x264 AAC-KiSSMYACE","uid":8753265,"size":1072528814,"categoryP":"video","categoryS":"movies","magnet":"?xt=urn:btih:56726068ee45baa22086e13ad78b48149b3144e8&amp;dn=The+Internship+2013+CAM+x264+AAC-KiSSMYACE&amp;tr=udp%3A%2F%2Ftracker.openbittorrent.com%3A80&amp;tr=udp%3A%2F%2Fopen.demonii.com%3A1337&amp;tr=udp%3A%2F%2Ftracker.coppersurfer.tk%3A6969&amp;tr=udp%3A%2F%2Fexodus.desync.com%3A6969","seeders":1,"leechers":0,"uploader":"srkfan","files":3,"time":1375085803,"description":" &lt;a href=&quot;http://img46.imageshack.us/img46/151/35fz.png&quot; rel=&quot;nofollow&quot; target=&quot;_NEW&quot;&gt;http://img46.imageshack.us/img46/151/35fz.png&lt;/a&gt;\n\nSources: Video - Greatness VOB Files ... Audio - JUSTiCE [THANKS]\n\n^^^ Notes: Got the vobs, indexed and IVTC them, cropped, resized, run a vague denoiser, fluxsmooth, colorbalance filters with custom settings, to get rid of the pixelation issues, upped gamma, brightness, and custom levels tweak, added slight sharpen.\n\nAudio i chose to use JUSTiCE's filtered audio as its the best out for now, enjoy.\n &lt;a href=&quot;\nhttp://www.imdb.com/title/tt2234155/&quot; rel=&quot;nofollow&quot; target=&quot;_NEW&quot;&gt;\nhttp://www.imdb.com/title/tt2234155/&lt;/a&gt;\n\nTwo salesmen whose careers have been torpedoed by the digital age find their way into a coveted internship at Google, where they must compete with a group of young, tech-savvy geniuses for a shot at employment.\n\nGeneral\nComplete name                            : The Internship 2013 CAM x264 AAC-KiSSMYACE.mp4\nFormat                                   : MPEG-4\nFormat profile                           : Base Media\nCodec ID                                 : isom\nFile size                                : 1 014 MiB\nDuration                                 : 1h 55mn\nOverall bit rate mode                    : Variable\nOverall bit rate                         : 1 231 Kbps\nEncoded date                             : UTC 2013-07-29 01:52:41\nTagged date                              : UTC 2013-07-29 01:52:41\n\nVideo\nID                                       : 1\nFormat                                   : AVC\nFormat/Info                              : Advanced Video Codec\nFormat profile                           : &lt;a class=&quot;__cf_email__&quot; href=&quot;/cdn-cgi/l/email-protection&quot; data-cfemail=&quot;9bd3f2fcf3dbd7afb5aa&quot;&gt;[email&amp;#160;protected]&lt;/a&gt;&lt;script cf-hash='f9e31' type=&quot;text/javascript&quot;&gt;\n/* &lt;![CDATA[ */!function(){try{var t=&quot;currentScript&quot;in document?document.currentScript:function(){for(var t=document.getElementsByTagName(&quot;script&quot;),e=t.length;e--;)if(t[e].getAttribute(&quot;cf-hash&quot;))return t[e]}();if(t&amp;&amp;t.previousSibling){var e,r,n,i,c=t.previousSibling,a=c.getAttribute(&quot;data-cfemail&quot;);if(a){for(e=&quot;&quot;,r=parseInt(a.substr(0,2),16),n=2;a.length-n;n+=2)i=parseInt(a.substr(n,2),16)^r,e+=String.fromCharCode(i);e=document.createTextNode(e),c.parentNode.replaceChild(e,c)}}}catch(u){}}();/* ]]&gt; */&lt;/script&gt;\nFormat settings, CABAC                   : Yes\nFormat settings, ReFrames                : 3 frames\nCodec ID                                 : avc1\nCodec ID/Info                            : Advanced Video Coding\nDuration                                 : 1h 55mn\nBit rate mode                            : Variable\nBit rate                                 : 1 100 Kbps\nMaximum bit rate                         : 40.0 Mbps\nWidth                                    : 720 pixels\nHeight                                   : 304 pixels\nDisplay aspect ratio                     : 2.35:1\nFrame rate mode                          : Constant\nFrame rate                               : 29.970 fps\nColor space                              : YUV\nChroma subsampling                       : 4:2:0\nBit depth                                : 8 bits\nScan type                                : Progressive\nBits/(Pixel*Frame)                       : 0.168\nStream size                              : 906 MiB (89%)\nWriting library                          : x264 core 135 r2345 f0c1c53\n\nAudio\nID                                       : 2\nFormat                                   : AAC\nFormat/Info                              : Advanced Audio Codec\nFormat profile                           : LC\nCodec ID                                 : 40\nDuration                                 : 1h 55mn\nBit rate mode                            : Variable\nBit rate                                 : 126 Kbps\nMaximum bit rate                         : 143 Kbps\nChannel(s)                               : 2 channels\nChannel positions                        : Front: L R\nSampling rate                            : 48.0 KHz\nCompression mode                         : Lossy\nStream size                              : 104 MiB (10%)\nLanguage                                 : English\nEncoded date                             : UTC 2013-07-29 01:31:51\nTagged date                              : UTC 2013-07-29 01:53:35\n &lt;a href=&quot;\nhttp://img32.imageshack.us/img32/9026/7di.png&quot; rel=&quot;nofollow&quot; target=&quot;_NEW&quot;&gt;\nhttp://img32.imageshack.us/img32/9026/7di.png&lt;/a&gt; &lt;a href=&quot;\nhttp://img706.imageshack.us/img706/2930/1p28.png&quot; rel=&quot;nofollow&quot; target=&quot;_NEW&quot;&gt;\nhttp://img706.imageshack.us/img706/2930/1p28.png&lt;/a&gt; &lt;a href=&quot;\nhttp://img132.imageshack.us/img132/1491/evt.png&quot; rel=&quot;nofollow&quot; target=&quot;_NEW&quot;&gt;\nhttp://img132.imageshack.us/img132/1491/evt.png&lt;/a&gt; &lt;a href=&quot;\nhttp://img197.imageshack.us/img197/2843/kkd5.png&quot; rel=&quot;nofollow&quot; target=&quot;_NEW&quot;&gt;\nhttp://img197.imageshack.us/img197/2843/kkd5.png&lt;/a&gt; &lt;a href=&quot;\nhttp://img845.imageshack.us/img845/7768/awfk.png&quot; rel=&quot;nofollow&quot; target=&quot;_NEW&quot;&gt;\nhttp://img845.imageshack.us/img845/7768/awfk.png&lt;/a&gt; &lt;a href=&quot;\nhttp://img844.imageshack.us/img844/1108/ftb2.png&quot; rel=&quot;nofollow&quot; target=&quot;_NEW&quot;&gt;\nhttp://img844.imageshack.us/img844/1108/ftb2.png&lt;/a&gt; &lt;a href=&quot;\nhttp://img194.imageshack.us/img194/5959/7302.png&quot; rel=&quot;nofollow&quot; target=&quot;_NEW&quot;&gt;\nhttp://img194.imageshack.us/img194/5959/7302.png&lt;/a&gt; &lt;a href=&quot;\nhttp://img196.imageshack.us/img196/9673/ah8t.png&quot; rel=&quot;nofollow&quot; target=&quot;_NEW&quot;&gt;\nhttp://img196.imageshack.us/img196/9673/ah8t.png&lt;/a&gt; &lt;a href=&quot;\nhttp://img7.imageshack.us/img7/1720/te3b.png&quot; rel=&quot;nofollow&quot; target=&quot;_NEW&quot;&gt;\nhttp://img7.imageshack.us/img7/1720/te3b.png&lt;/a&gt;","torrent":{"xt":"urn:btih:56726068ee45baa22086e13ad78b48149b3144e8","amp;dn":"The+Internship+2013+CAM+x264+AAC-KiSSMYACE","amp;tr":["udp%3A%2F%2Ftracker.openbittorrent.com%3A80","udp%3A%2F%2Fopen.demonii.com%3A1337","udp%3A%2F%2Ftracker.coppersurfer.tk%3A6969","udp%3A%2F%2Fexodus.desync.com%3A6969"],"infoHash":"56726068ee45baa22086e13ad78b48149b3144e8","infoHashBuffer":{"type":"Buffer","data":[86,114,96,104,238,69,186,162,32,134,225,58,215,139,72,20,155,49,68,232]},"announce":[],"urlList":[]}}